<svg id="图层_1" data-name="图层 1" xmlns="http://www.w3.org/2000/svg" viewBox="0 0 288 16"><defs><style>.cls-1{fill:none;stroke:#9e9e9e;stroke-miterlimit:10;}.cls-2{fill:#9e9e9e;}</style></defs><title>openline</title><g id="缩小卡片"><line class="cls-1" x1="36.8527" y1="7.9014" x2="241.1473" y2="7.9014"/><path class="cls-2" d="M133.3336,5.9364A7.9148,7.9148,0,0,1,136.1668,4.61,10.3109,10.3109,0,0,1,139,4.2369a10.46,10.46,0,0,1,2.8332.378,7.988,7.988,0,0,1,2.8332,1.3215v.2c-1.8888.0858-3.7776.064-5.6664.1-1.8888-.0353-3.7776-.0135-5.6664-.1Z"/><path class="cls-2" d="M144.6664,10.0636a7.9148,7.9148,0,0,1-2.8332,1.3266A10.3109,10.3109,0,0,1,139,11.7631a10.46,10.46,0,0,1-2.8332-.378,7.988,7.988,0,0,1-2.8332-1.3215v-.2c1.8888-.0858,3.7776-.064,5.6664-.1,1.8888.0353,3.7776.0135,5.6664.1Z"/></g></svg>