<svg id="图层_1" data-name="图层 1" xmlns="http://www.w3.org/2000/svg" viewBox="0 0 288 16"><defs><style>.cls-1{fill:none;stroke:#9e9e9e;stroke-miterlimit:10;}.cls-2{fill:#9e9e9e;}</style></defs><title>closeline</title><g id="缩小卡片"><line class="cls-1" x1="41.8527" y1="10.4326" x2="246.1473" y2="10.4326"/><path class="cls-2" d="M138.3336,5.4674a7.9148,7.9148,0,0,1,2.8332-1.3266A10.3109,10.3109,0,0,1,144,3.7679a10.46,10.46,0,0,1,2.8332.378,7.988,7.988,0,0,1,2.8332,1.3215v.2c-1.8888.0858-3.7776.064-5.6664.1-1.8888-.0353-3.7776-.0135-5.6664-.1Z"/><path class="cls-2" d="M138.3336,8.3946a7.9148,7.9148,0,0,1,2.8332-1.3266A10.3109,10.3109,0,0,1,144,6.6951a10.46,10.46,0,0,1,2.8332.378,7.988,7.988,0,0,1,2.8332,1.3215v.2c-1.8888.0858-3.7776.064-5.6664.1-1.8888-.0353-3.7776-.0135-5.6664-.1Z"/></g></svg>